<?xml version="1.0" encoding="iso-8859-1"?>
<!-- Uploaded to: SVG Repo, www.svgrepo.com, Generator: SVG Repo Mixer Tools -->
<!DOCTYPE svg PUBLIC "-//W3C//DTD SVG 1.1//EN" "http://www.w3.org/Graphics/SVG/1.1/DTD/svg11.dtd">
<svg fill="#000000" version="1.1" id="Capa_1" xmlns="http://www.w3.org/2000/svg" xmlns:xlink="http://www.w3.org/1999/xlink" 
	 width="800px" height="800px" viewBox="0 0 381.396 381.396"
	 xml:space="preserve">
<g>
	<g>
		<path d="M190.699,0C85.549,0,0,85.547,0,190.697c0,105.15,85.549,190.699,190.699,190.699
			c105.15,0,190.697-85.549,190.697-190.699C381.396,85.547,295.85,0,190.699,0z M229.264,29.867l-13.826,57.686
			c-7.957-1.91-16.209-3.029-24.738-3.029c-8.543,0-16.801,1.123-24.764,3.037l-13.801-57.693
			c12.381-2.969,25.281-4.586,38.564-4.586C203.98,25.281,216.881,26.898,229.264,29.867z M25.283,190.697
			c0-13.344,1.629-26.312,4.629-38.748l58.006,12.584c-2.135,8.389-3.395,17.123-3.395,26.164c0,9.053,1.26,17.795,3.406,26.189
			l-58.018,12.565C26.912,217.014,25.283,204.045,25.283,190.697z M109.804,190.697c0-44.604,36.287-80.893,80.895-80.893
			c44.605,0,80.893,36.289,80.893,80.893c0,44.604-36.286,80.895-80.893,80.895C146.092,271.592,109.804,235.301,109.804,190.697z
			 M128,37.66l14.055,58.77c-19.066,9.881-34.799,25.318-44.951,44.227L37.75,127.778C54.576,87.029,87.215,54.429,128,37.66z
			 M190.699,356.113c-68.945,0-128.137-42.402-152.949-102.49l59.365-12.855c17.924,33.357,53.137,56.105,93.584,56.105
			c58.543,0,106.174-47.631,106.174-106.176c0-41.02-23.424-76.609-57.562-94.281l14.086-58.76
			c60.203,24.758,102.719,84.018,102.719,153.041C356.115,281.908,281.912,356.113,190.699,356.113z"/>
		<path d="M190.699,241.828c28.193,0,51.131-22.936,51.131-51.131c0-28.193-22.938-51.131-51.131-51.131
			c-28.195,0-51.131,22.938-51.131,51.131C139.568,218.893,162.504,241.828,190.699,241.828z M190.699,164.847
			c14.252,0,25.85,11.596,25.85,25.85c0,14.256-11.598,25.85-25.85,25.85s-25.85-11.594-25.85-25.85
			C164.849,176.443,176.447,164.847,190.699,164.847z"/>
	</g>
</g>
</svg>